<?xml version="1.0" standalone="no"?><!DOCTYPE svg PUBLIC "-//W3C//DTD SVG 1.1//EN" "http://www.w3.org/Graphics/SVG/1.1/DTD/svg11.dtd"><svg t="1686140843300" class="icon" viewBox="0 0 1024 1024" version="1.1" xmlns="http://www.w3.org/2000/svg" p-id="7035" xmlns:xlink="http://www.w3.org/1999/xlink" width="200" height="200"><path d="M512 938.666667c-188.501333 0-341.333333-307.882667-341.333333-501.973334a341.333333 341.333333 0 1 1 682.666666 0C853.333333 630.784 700.501333 938.666667 512 938.666667z m0-767.573334a259.029333 259.029333 0 0 0-256 262.229334c0 145.066667 114.517333 419.584 256 419.584s256-274.730667 256-419.584a259.029333 259.029333 0 0 0-256-262.229334z m0 426.965334A171.349333 171.349333 0 1 1 682.24 426.666667 170.666667 170.666667 0 0 1 512 598.058667z m0-256.981334A85.674667 85.674667 0 1 0 596.352 426.666667 85.034667 85.034667 0 0 0 512 341.077333z" p-id="7036" fill="#d81e06"></path></svg>